<svg version="1.2" xmlns="http://www.w3.org/2000/svg" viewBox="0 0 900 900" width="900" height="900">
	<title>template</title>
	<style>
		.s0 { fill: #0e5dd2 } 
		.s1 { fill: #ffffff } 
	</style>
	<path id="Background" class="s0" d="m-90-510h1080v1920h-1080z"/>
	<path id="CALCULATOR" class="s1" aria-label="CALCULATOR"  d="m151.6 458.9c-10.3-5.8-21.9-8.7-32.5-8.7-20.2 0-37.1 10.2-37.1 29.7 0 18.9 17 29 37.7 29 11.3 0 21.2-1.4 32.4-7.6l-6.5-19.8c-2.6 1.4-10.6 4-16.7 4-5.1 0-7.4-3.2-7.4-5.8 0-3.1 3.3-5.7 9-5.7 3.7 0 8 0.9 11.9 2.3zm50.2 49.1h34.3l-19.2-56h-43.9l-18 56h33l2.9-11h8zm-7.2-29.2l2.5 10.4h-5zm78.5-26.8h-32.9v56h58.1v-22.8h-25.2zm97.9 6.9c-10.4-5.8-21.9-8.7-32.6-8.7-20.1 0-37.1 10.2-37.1 29.7 0 18.9 17 29 37.8 29 11.2 0 21.2-1.4 32.4-7.6l-6.6-19.8c-2.6 1.4-10.6 4-16.6 4-5.2 0-7.5-3.2-7.5-5.8 0-3.1 3.3-5.7 9.1-5.7 3.6 0 8 0.9 11.8 2.3zm41.6 17.5c0 9.2-1.6 9.6-3 9.6-1.6 0-3-0.4-3-9.6v-24.4h-33v28c0 17.4 8.8 28.4 35.6 28.4 26.3 0 36.4-10.7 36.4-28v-28.4h-33zm71.1-24.4h-32.9v56h58.1v-22.8h-25.2zm77 56h34.2l-19.2-56h-43.8l-18 56h32.9l3-11h7.9zm-7.2-29.2l2.6 10.4h-5.1zm82.3-6.3h14.2v-20.5h-61.2v20.5h13.9v35.5h33.1zm61.3 36.2c29.6 0 44.2-14.4 44.2-28.8 0-14.5-14.9-29.1-44.2-29.1-29.2 0-44.1 14.6-44.1 29.1 0 14.4 14.6 28.8 44.1 28.8zm0-35.6c5 0.2 7.4 3.7 7.4 7.2 0 3.4-2.4 6.7-7.4 6.7-4.8 0-7.2-3.5-7.2-7.1 0-3.4 2.4-6.8 7.2-6.8zm48.6-21.1v56h33v-13.6h1.4c1.9 5.4 4.5 13.6 4.5 13.6h34.1l-12.2-22.1c5.5-3 9-8.6 9-13.5 0-10.1-5.9-20.4-29.7-20.4zm32.6 24.9v-5.7h3c2.9 0 3.6 1.5 3.6 2.8 0 1.4-0.7 2.9-3.6 2.9z"/>
</svg>